<svg xmlns="http://www.w3.org/2000/svg" width="1342.515" height="1352.584" viewBox="0 0 1342.515 1352.584">
  <g id="Group_9" data-name="Group 9" transform="translate(-297.743 -144.708)" opacity="0.11">
    <rect id="Rectangle_31" data-name="Rectangle 31" width="67" height="915" rx="33.5" transform="translate(831.768 144.708) rotate(31)" fill="#48d58e"/>
    <rect id="Rectangle_32" data-name="Rectangle 32" width="67" height="915" rx="33.5" transform="translate(1032.848 405.817) rotate(31)" fill="#48d58e"/>
    <rect id="Rectangle_20" data-name="Rectangle 20" width="67" height="1217.892" rx="33.5" transform="translate(297.743 639.477) rotate(-47)" fill="#55500e"/>
    <rect id="Rectangle_21" data-name="Rectangle 21" width="67" height="1217.892" rx="33.5" transform="translate(360.509 556.34) rotate(-47)" fill="#c755d5"/>
    <rect id="Rectangle_22" data-name="Rectangle 22" width="67" height="1217.892" rx="33.5" transform="translate(422.696 497.678) rotate(-47)" fill="#55500e"/>
    <rect id="Rectangle_23" data-name="Rectangle 23" width="67" height="1217.892" rx="33.5" transform="translate(465.426 451.855) rotate(-47)" fill="#25d0bf"/>
    <rect id="Rectangle_24" data-name="Rectangle 24" width="67" height="1217.892" rx="33.5" transform="translate(510.576 403.439) rotate(-47)" fill="#c755d5"/>
    <rect id="Rectangle_25" data-name="Rectangle 25" width="67" height="1217.892" rx="33.5" transform="translate(547.663 363.668) rotate(-47)" fill="#55500e"/>
    <rect id="Rectangle_26" data-name="Rectangle 26" width="67" height="1217.892" rx="33.5" transform="translate(604.385 301.709) rotate(-47)" fill="#c755d5"/>
    <rect id="Rectangle_28" data-name="Rectangle 28" width="67" height="915" rx="33.5" transform="translate(1161.158 418.001) rotate(31)" fill="#8e83da"/>
    <rect id="Rectangle_29" data-name="Rectangle 29" width="67" height="915" rx="33.5" transform="translate(1363.848 521.208) rotate(31)" fill="#03657e"/>
    <rect id="Rectangle_30" data-name="Rectangle 30" width="67" height="915" rx="33.5" transform="translate(1064.679 144.708) rotate(31)" fill="#488fd5"/>
    <rect id="Rectangle_27" data-name="Rectangle 27" width="67" height="1217.892" rx="33.5" transform="translate(666.447 228.255) rotate(-47)" fill="#55500e"/>
    <rect id="Rectangle_33" data-name="Rectangle 33" width="67" height="915" rx="33.5" transform="translate(1205.848 578.817) rotate(31)" fill="#48d58e"/>
    <rect id="Rectangle_34" data-name="Rectangle 34" width="67" height="915" rx="33.5" transform="translate(1503.827 590.476) rotate(31)" fill="#488fd5"/>
    <rect id="Rectangle_35" data-name="Rectangle 35" width="67" height="915" rx="33.5" transform="translate(1582.827 678.476) rotate(31)" fill="#48d58e"/>
  </g>
</svg>
